<svg width="500" height="500" version="1.1" xmlns="http://www.w3.org/2000/svg" desc="Created with imagetracer.js version 1.2.6" ><path fill="rgb(0,1,0)" stroke="rgb(0,1,0)" stroke-width="1" opacity="0" d="M 0 0 L 500 0 L 500 500 L 0 500 L 0 0 Z M 118 57 Q 95 61 82 73 Q 62 88 57 118 L 57 377 L 62 395 Q 67 406 75 414 Q 74 416 77 415 L 77 417 L 91 427 L 99 431 L 112 435 L 125 436 L 126 437 L 376 437 L 377 436 L 390 435 L 402 431 Q 413 427 420 419 Q 422 420 421 417 L 425 415 Q 424 412 427 413 L 439 393 L 442 384 L 443 371 L 444 370 L 444 125 L 443 124 L 442 110 L 439 101 Q 435 89 427 81 Q 412 62 384 57 L 118 57 Z " /><path fill="rgb(1,193,82)" stroke="rgb(1,193,82)" stroke-width="1" opacity="0.996078431372549" d="M 117 57 L 383.5 57 Q 412 62 427 80.5 Q 434.5 89 439 100.5 L 442 109.5 L 443 123.5 L 444 124.5 L 444 369.5 L 443 370.5 L 442 383.5 L 439 392.5 L 427 413 Q 424.3 411.9 425 414.5 L 421 417 Q 422.1 419.7 419.5 419 Q 412.5 427 401.5 431 L 389.5 435 L 376.5 436 L 375.5 437 L 125.5 437 L 124.5 436 L 111.5 435 L 98.5 431 L 90.5 427 L 77 417 L 77 415 Q 74.3 416.1 75 413.5 Q 61.1 401 58 379 Q 60.7 377.9 60 380.5 Q 57.5 382 61 383.5 L 63 388.5 L 63 390.5 L 65 396 L 67.5 397 Q 68.8 394.8 70 397.5 L 68 397.5 L 69 399.5 L 67 400.5 L 71.5 407 L 73.5 404 L 74 406.5 Q 69.8 408.8 74.5 411 Q 76.8 410.3 76 412.5 L 78 412.5 L 77.5 414 L 79.5 415 L 81 414.5 Q 79.7 419.3 83 418 L 82 415.5 L 87 415 Q 88.3 418 84.5 417 Q 81.3 418.8 85 420.5 Q 84.3 422.8 86.5 422 L 90 423 L 88 419.5 L 89.5 419 L 94 420 Q 95.7 424.1 91.5 423 L 90.5 425 L 94.5 427 L 96.5 424 L 97 425.5 L 97 427.5 L 97.5 429 L 99.5 429 L 103.5 431 L 107.5 431 L 107.5 430 L 105 428.5 L 106 424.5 L 103.5 422 L 96.5 421 L 95 419.5 L 95.5 418 L 99.5 419 L 101.5 418 L 105.5 422 L 113 423 Q 114.3 426 110.5 425 L 107 426 Q 105.9 428.7 108.5 428 L 114 431.5 L 109 432.5 L 114.5 433 L 116.5 433 L 118 433 L 118.5 435 L 191.5 435 L 199.5 435 L 287.5 435 L 288.5 434 L 303.5 435 L 306.5 434 L 309.5 435 L 327.5 435 L 328 433.5 L 335.5 434 L 337.5 435 L 344 434.5 L 344.5 433 L 347.5 434 Q 352.3 432.7 353.5 435 L 360.5 434 L 377.5 435 L 381.5 435 L 384.5 433 L 386.5 433 L 391 432.5 L 390 428 Q 387 429 388 426 L 384 426 L 384 420 Q 387.1 419.3 386.5 422 L 392 422 L 392 427 L 394.5 427 L 398.5 427 Q 401.1 427.8 400 424.5 L 401.5 422 Q 398.9 422.8 400 419.5 Q 401.2 417 405 418 L 406.5 415 Q 409.5 414.2 408 418 L 406 418 L 406 422 Q 402.2 420.5 403 423.5 L 403.5 425 L 401.5 424 L 402 425.5 L 398.5 430 L 401.5 428 Q 403 430.5 404.5 427 L 408 427 Q 406.9 424.3 409.5 425 L 409.5 423 Q 413.3 424.3 412 420.5 L 413.5 421 L 419 417.5 L 418 414 Q 421.3 415.3 420 410.5 L 422.5 412 Q 425.8 413.1 425 410.5 L 427 407 L 429 406.5 L 428 404 L 426 404 Q 427.1 406.7 424.5 406 L 422.5 406 Q 417.7 404.3 419 408.5 L 416.5 413 Q 414.3 412.3 415 408.5 L 418 407 L 418 404 L 420 404 Q 418.9 401.3 421.5 402 Q 423.8 396.7 426 400.5 L 426 402 L 428 402 Q 426.9 404.7 429.5 404 L 431 404.5 L 429 399 L 432.5 401 L 434 396.5 L 432.5 396 L 431 396.5 Q 429.8 391.3 432.5 390 L 432 391.5 L 433 393.5 L 432.5 395 L 434.5 396 L 437 393.5 L 437 389.5 Q 439.8 388.8 439 384.5 Q 436.3 383.8 437 379.5 L 438 378.5 L 438 367.5 L 437 366.5 L 437 352.5 L 438 351.5 L 438 320.5 L 437 319.5 L 437 304.5 L 438 303.5 L 438 288.5 L 437 287.5 L 436 256 L 438 255.5 L 438 240.5 L 437 239.5 L 437 209.5 L 438 208.5 L 438 191.5 L 437 190.5 L 437 160.5 L 438 159.5 L 438 128 L 440 128.5 L 440 159.5 L 439 160.5 L 439 191.5 L 440 192.5 L 440 223.5 L 439 224.5 L 439 239.5 L 440 240.5 L 440 319.5 L 441 320.5 L 441 335.5 L 440 336.5 L 440 351.5 L 439 352.5 L 439 368.5 L 440 371.5 L 439 373.5 L 440.5 380 L 441 368 L 443 367.5 L 443 127.5 L 441 124.5 L 442 122.5 L 441 121.5 L 440.5 110 L 438 118.5 L 436 120.5 L 435 142.5 L 436 143.5 L 436 158.5 L 434 159.5 L 434 129.5 L 433 128.5 L 433 120.5 L 436 119.5 L 436 112.5 Q 440.1 110.2 439 104 L 437 103.5 L 437 101.5 L 435 98.5 L 435 96.5 L 434.5 95 L 433 98.5 L 433.5 100 Q 428.3 97.3 434 94.5 L 433 91 L 431 91 L 431 88 Q 428.3 89.1 429 86.5 Q 424.3 85.1 425 80 Q 422.3 81.1 423 78.5 L 419.5 76 L 417.5 77 L 415.5 77 L 411 74.5 Q 409.7 70.3 414.5 72 L 414.5 71 L 412.5 70 L 411 70.5 L 411.5 69 L 406.5 67 L 399 70 L 399.5 68 L 400.5 69 L 404 65.5 L 400 65 Q 401.4 61.3 395.5 63 L 393 62.5 L 393.5 61 Q 388 59.5 386.5 62 L 387.5 59 Q 382.5 58 381.5 61 L 379 60.5 L 379.5 59 L 287 59.5 L 336 60.5 L 272.5 62 L 271.5 61 L 160.5 61 L 158.5 62 L 158.5 61 L 160.5 60 L 274 59.5 L 117 59 L 117 57 Z M 416 73 L 416 75 L 418 74 L 416 73 Z M 425 401 Q 422 405 426 404 L 425 401 Z M 393 430 L 393 431 L 395 431 L 393 430 Z " /><path fill="rgb(1,193,82)" stroke="rgb(1,193,82)" stroke-width="1" opacity="0.996078431372549" d="M 112.5 58 L 116 58.5 L 113 59 Q 114.1 61.7 111.5 61 L 109.5 61 L 107 61.5 L 109 62.5 L 106 63 L 105.5 61 L 105 63 Q 99.7 61.7 100.5 65 L 97.5 65 L 88 71.5 L 91 72.5 L 88.5 73 L 86 71.5 Q 86.7 74.1 84 73 L 84 75.5 L 77 79.5 Q 77.8 81.8 75.5 81 L 76 82.5 L 75.5 85 L 73.5 84 Q 70.8 85.2 73 86.5 L 75 89.5 L 74 92 Q 70.3 93.3 72 87.5 L 69 89.5 L 65 100 Q 61.7 98.7 63 103.5 Q 59.3 105.4 61 112 L 59 112.5 L 59 122.5 L 60 127.5 L 59 128.5 L 58.5 378 L 57 376.5 L 57 117.5 Q 62.2 88.2 81.5 73 Q 93.7 62.2 112.5 58 Z " /><path fill="rgb(1,193,82)" stroke="rgb(1,193,82)" stroke-width="1" opacity="0.996078431372549" d="M 131.5 60 L 155 60.5 L 131.5 61 L 131.5 60 Z " /><path fill="rgb(1,193,82)" stroke="rgb(1,193,82)" stroke-width="1" opacity="0.996078431372549" d="M 339.5 60 L 368 60.5 L 339.5 61 L 339.5 60 Z " /><path fill="rgb(1,193,82)" stroke="rgb(1,193,82)" stroke-width="1" opacity="0.996078431372549" d="M 371.5 61 L 374 61.5 L 371.5 62 L 371.5 61 Z " /><path fill="rgb(1,193,82)" stroke="rgb(1,193,82)" stroke-width="1" opacity="0.996078431372549" d="M 122.5 63 L 126 63.5 L 122.5 64 L 122.5 63 Z " /><path fill="rgb(1,193,82)" stroke="rgb(1,193,82)" stroke-width="1" opacity="0.996078431372549" d="M 391.5 64 L 395 64.5 L 391.5 65 L 391.5 64 Z " /><path fill="rgb(1,193,82)" stroke="rgb(1,193,82)" stroke-width="1" opacity="0.996078431372549" d="M 95.5 73 L 96 76 Q 91.9 77.3 93 74 L 95.5 73 Z " /><path fill="rgb(1,193,82)" stroke="rgb(1,193,82)" stroke-width="1" opacity="0.996078431372549" d="M 399 74 L 404.5 74 L 414 79.5 Q 413.3 81.8 409.5 81 L 408 78 L 404.5 77 L 399 78 L 399 74 Z " /><path fill="rgb(1,193,82)" stroke="rgb(1,193,82)" stroke-width="1" opacity="0.996078431372549" d="M 90.5 77 L 94 78.5 Q 95.3 83.1 89.5 81 Q 86 79 90.5 77 Z " /><path fill="rgb(1,193,82)" stroke="rgb(1,193,82)" stroke-width="1" opacity="0.996078431372549" d="M 416.5 79 L 417.5 81 Q 414.7 81.7 416.5 79 Z " /><path fill="rgb(1,193,82)" stroke="rgb(1,193,82)" stroke-width="1" opacity="0.996078431372549" d="M 420.5 80 L 425 86 Q 421.2 85 420 87.5 Q 420.7 90.1 418 89 Q 417.1 83 420.5 80 Z " /><path fill="rgb(1,193,82)" stroke="rgb(1,193,82)" stroke-width="1" opacity="0.996078431372549" d="M 78 81 Q 82.1 79.3 81 83.5 L 79.5 83 Q 76.9 83.7 78 81 Z " /><path fill="rgb(1,193,82)" stroke="rgb(1,193,82)" stroke-width="1" opacity="0.996078431372549" d="M 78 89 L 81 89 L 81 94 L 78 94 L 78 89 Z " /><path fill="rgb(1,193,82)" stroke="rgb(1,193,82)" stroke-width="1" opacity="0.996078431372549" d="M 421 91 Q 425.5 89.5 424 94 L 421 94 Q 422.5 98.5 418 97 Q 416.5 93.2 419.5 94 L 421 91 Z " /><path fill="rgb(1,193,82)" stroke="rgb(1,193,82)" stroke-width="1" opacity="0.996078431372549" d="M 71.5 93 L 73 96 L 70 95.5 L 71.5 93 Z " /><path fill="rgb(1,193,82)" stroke="rgb(1,193,82)" stroke-width="1" opacity="0.996078431372549" d="M 428.5 93 L 430 93 L 430 97 Q 424.4 98.9 426 94 L 428.5 93 Z " /><path fill="rgb(1,193,82)" stroke="rgb(1,193,82)" stroke-width="1" opacity="0.996078431372549" d="M 432.5 103 L 435 109.5 L 432 109.5 L 432.5 108 Q 429.5 108.9 431 104.5 L 432.5 103 Z " /><path fill="rgb(1,193,82)" stroke="rgb(1,193,82)" stroke-width="1" opacity="0.996078431372549" d="M 63.5 106 Q 66.5 107.5 63.5 109 Q 60.5 107.5 63.5 106 Z " /><path fill="rgb(1,193,82)" stroke="rgb(1,193,82)" stroke-width="1" opacity="0.996078431372549" d="M 432.5 112 L 433 115.5 L 432 115.5 L 432.5 112 Z " /><path fill="rgb(1,193,82)" stroke="rgb(1,193,82)" stroke-width="1" opacity="0.996078431372549" d="M 62.5 125 L 63 127.5 L 62 127.5 L 62.5 125 Z " /><path fill="rgb(1,193,82)" stroke="rgb(1,193,82)" stroke-width="1" opacity="0.996078431372549" d="M 320 127 L 323 128.5 L 320.5 130 L 320 127 Z " /><path fill="rgb(1,193,82)" stroke="rgb(1,193,82)" stroke-width="1" opacity="0.996078431372549" d="M 324 127 L 329 127 L 329 128.5 L 325.5 130 L 324 127 Z " /><path fill="rgb(1,193,82)" stroke="rgb(1,193,82)" stroke-width="1" opacity="0.996078431372549" d="M 179.5 128 L 180 132 Q 177 133.3 178 129.5 L 179.5 128 Z " /><path fill="rgb(1,193,82)" stroke="rgb(1,193,82)" stroke-width="1" opacity="0.996078431372549" d="M 184 128 Q 186.7 126.9 186 129.5 L 186 131.5 L 186.5 133 L 321.5 133 L 325.5 132 L 331.5 134 L 334 132.5 L 333.5 135 L 332 134.5 Q 330.3 140.8 333 142.5 L 333 182 L 335 182.5 L 332.5 184 Q 331 181.5 329.5 185 L 327.5 183 Q 325.3 182.3 326 184.5 L 325.5 187 Q 319.9 187.6 318.5 184 L 238 184 Q 239 187 236 186 L 236 184 L 230 184 Q 228.8 187 232.5 186 L 237.5 188 L 318.5 188 Q 319.6 190.7 323 190 Q 324.5 194.5 320 193 L 319.5 190 L 241.5 190 L 240 192.5 L 241 193.5 L 241 206.5 L 238 208 L 238 193.5 L 237 190 L 233.5 189 L 230 191.5 L 231 192.5 L 231 223.5 L 230 226 L 234 224.5 Q 232.8 216.6 236 217.5 L 236 208.5 L 237 208.5 L 237 216.5 L 239 223.5 L 238 230 L 231 229 Q 229.5 232.8 232.5 232 L 234.5 232 L 239.5 231 L 240.5 232 L 256.5 232 L 257.5 231 L 286.5 231 L 287.5 232 L 303.5 232 L 307.5 231 L 312 232 Q 313.1 229.3 310.5 230 L 308 229 L 308.5 224 L 317 228.5 L 314 230 L 317.5 235 Q 322.8 233.5 321 238 Q 315.8 235.9 317 240.5 L 318 241.5 L 318.5 256 L 319.5 241 L 320 254.5 L 321.5 256 L 336 256 L 336 272 L 321.5 272 L 320.5 273 L 319.5 271 L 317 272 L 318 277.5 Q 315 279.5 316 285.5 L 317 287.5 L 314 289 L 313 281 Q 306.4 279.3 304.5 283 L 303.5 282 L 238.5 282 L 232 281 L 231 285.5 L 231 319.5 L 232 320.5 L 232 335.5 L 231 337.5 L 232 338.5 L 232 352 L 234 352 L 234 356 Q 237 355 236 358 L 231 358 L 231 359.5 L 232 362.5 L 228 365.5 Q 226.9 368.8 229.5 368 L 231.5 368 L 234 365.5 Q 233.2 362.5 237 364 L 236 369 L 227.5 369 L 227 367.5 L 226 365 L 210.5 366 L 208.5 365 L 206.5 366 L 205.5 365 L 199 365 L 198.5 367 L 197.5 365 L 193.5 365 L 192 365.5 L 193 367.5 L 190 369 Q 192 363 186 365 Q 187.7 370.2 184 369 L 183 365 L 175.5 365 L 175 364.5 L 175 134 L 184 133 L 184 128 Z M 176 135 L 176 280 L 177 281 Q 179 287 176 289 L 177 293 L 177 364 L 229 364 L 229 284 L 228 283 L 229 280 L 315 280 L 315 236 Q 317 234 315 233 L 314 234 L 229 234 L 229 201 L 228 200 L 228 183 L 229 182 L 331 182 L 331 140 L 330 139 L 331 136 L 176 135 Z M 232 352 L 231 355 L 232 355 L 232 352 Z " /><path fill="rgb(1,193,82)" stroke="rgb(1,193,82)" stroke-width="1" opacity="0.996078431372549" d="M 191.5 128 L 193 132 Q 189.3 133.5 190 130.5 L 191.5 128 Z " /><path fill="rgb(1,193,82)" stroke="rgb(1,193,82)" stroke-width="1" opacity="0.996078431372549" d="M 240.5 130 L 245 130.5 L 240.5 131 L 240.5 130 Z " /><path fill="rgb(1,193,82)" stroke="rgb(1,193,82)" stroke-width="1" opacity="0.996078431372549" d="M 208.5 131 L 216 131.5 L 208.5 132 L 208.5 131 Z " /><path fill="rgb(1,193,82)" stroke="rgb(1,193,82)" stroke-width="1" opacity="0.996078431372549" d="M 272.5 131 L 280 131.5 L 272.5 132 L 272.5 131 Z " /><path fill="rgb(1,193,82)" stroke="rgb(1,193,82)" stroke-width="1" opacity="0.996078431372549" d="M 304.5 131 L 312 131.5 L 304.5 132 L 304.5 131 Z " /><path fill="rgb(1,193,82)" stroke="rgb(1,193,82)" stroke-width="1" opacity="0.996078431372549" d="M 335.5 138 Q 338 139.2 337 143 L 334.5 144 L 334 142.5 L 335.5 138 Z " /><path fill="rgb(1,193,82)" stroke="rgb(1,193,82)" stroke-width="1" opacity="0.996078431372549" d="M 63.5 144 L 64 147.5 L 63 151.5 L 64 152.5 L 64 206.5 L 62 207.5 L 63 200.5 Q 60.2 198.8 62 192.5 L 63 191.5 L 63 160.5 L 62 159.5 L 62 148.5 L 63.5 144 Z " /><path fill="rgb(1,193,82)" stroke="rgb(1,193,82)" stroke-width="1" opacity="0.996078431372549" d="M 432.5 160 L 433 190.5 L 432 190.5 L 432.5 160 Z " /><path fill="rgb(1,193,82)" stroke="rgb(1,193,82)" stroke-width="1" opacity="0.996078431372549" d="M 328.5 186 L 332 187.5 Q 332.8 190.1 329.5 189 L 328 193 Q 324.7 194.3 326 189.5 L 328.5 186 Z " /><path fill="rgb(1,193,82)" stroke="rgb(1,193,82)" stroke-width="1" opacity="0.996078431372549" d="M 334 189 Q 337 188 336 191 Q 333 192 334 189 Z " /><path fill="rgb(1,193,82)" stroke="rgb(1,193,82)" stroke-width="1" opacity="0.996078431372549" d="M 232 193 L 234 193.5 L 234 208 L 232 207.5 L 232 193 Z " /><path fill="rgb(1,193,82)" stroke="rgb(1,193,82)" stroke-width="1" opacity="0.996078431372549" d="M 434.5 193 L 435 206.5 L 434 206.5 L 434.5 193 Z " /><path fill="rgb(1,193,82)" stroke="rgb(1,193,82)" stroke-width="1" opacity="0.996078431372549" d="M 432.5 209 L 433 239.5 L 432 239.5 L 432.5 209 Z " /><path fill="rgb(1,193,82)" stroke="rgb(1,193,82)" stroke-width="1" opacity="0.996078431372549" d="M 318.5 223 L 320 226 Q 314.8 227.7 316 224 L 318.5 223 Z " /><path fill="rgb(1,193,82)" stroke="rgb(1,193,82)" stroke-width="1" opacity="0.996078431372549" d="M 63.5 224 L 65 254.5 L 64 255.5 L 64 304 L 62 303.5 L 62 296.5 L 63 295.5 L 63 255.5 L 62 254.5 L 62 240.5 L 63 239.5 L 63.5 224 Z " /><path fill="rgb(1,193,82)" stroke="rgb(1,193,82)" stroke-width="1" opacity="0.996078431372549" d="M 241 226 L 286.5 226 L 289 227 L 288.5 229 L 241 229 L 241 226 Z " /><path fill="rgb(1,193,82)" stroke="rgb(1,193,82)" stroke-width="1" opacity="0.996078431372549" d="M 318 228 L 321 229.5 L 320.5 233 L 318 228 Z " /><path fill="rgb(1,193,82)" stroke="rgb(1,193,82)" stroke-width="1" opacity="0.996078431372549" d="M 434.5 240 L 435 255.5 L 434 255.5 L 434.5 240 Z " /><path fill="rgb(1,193,82)" stroke="rgb(1,193,82)" stroke-width="1" opacity="0.996078431372549" d="M 400 256 L 416 256 L 416 272 L 400 272 L 400 256 Z " /><path fill="rgb(1,193,82)" stroke="rgb(1,193,82)" stroke-width="1" opacity="0.996078431372549" d="M 432.5 256 L 433 286.5 L 432 286.5 L 432.5 256 Z " /><path fill="rgb(1,193,82)" stroke="rgb(1,193,82)" stroke-width="1" opacity="0.996078431372549" d="M 319 280 Q 321.7 278.9 321 281.5 L 319 282.5 L 319 280 Z " /><path fill="rgb(1,193,82)" stroke="rgb(1,193,82)" stroke-width="1" opacity="0.996078431372549" d="M 309.5 284 L 311 287.5 L 308.5 289 L 306.5 288 L 303.5 289 L 302.5 288 L 238 288 L 237 334.5 L 240 337.5 L 240 351.5 L 241 354 Q 237.3 355.5 238 352.5 L 236 350.5 L 236 336.5 L 234 334.5 L 234 286 L 237.5 287 L 239.5 285 L 304.5 285 L 308 287 L 309.5 284 Z " /><path fill="rgb(1,193,82)" stroke="rgb(1,193,82)" stroke-width="1" opacity="0.996078431372549" d="M 319.5 286 L 320 288 L 318 287.5 L 319.5 286 Z " /><path fill="rgb(1,193,82)" stroke="rgb(1,193,82)" stroke-width="1" opacity="0.996078431372549" d="M 434.5 289 L 435 302.5 L 434 302.5 L 434.5 289 Z " /><path fill="rgb(1,193,82)" stroke="rgb(1,193,82)" stroke-width="1" opacity="0.996078431372549" d="M 432.5 305 L 433 319.5 L 432 319.5 L 432.5 305 Z " /><path fill="rgb(1,193,82)" stroke="rgb(1,193,82)" stroke-width="1" opacity="0.996078431372549" d="M 266 320 L 272 320 L 272 336 L 266 336 L 266 320 Z " /><path fill="rgb(1,193,82)" stroke="rgb(1,193,82)" stroke-width="1" opacity="0.996078431372549" d="M 304 320 L 320 320 L 320 336 L 304 336 L 304 320 Z " /><path fill="rgb(1,193,82)" stroke="rgb(1,193,82)" stroke-width="1" opacity="0.996078431372549" d="M 434.5 320 L 435 350.5 L 434 350.5 L 434.5 320 Z " /><path fill="rgb(1,193,82)" stroke="rgb(1,193,82)" stroke-width="1" opacity="0.996078431372549" d="M 62.5 344 L 64 351.5 L 62 352 L 62.5 344 Z " /><path fill="rgb(1,193,82)" stroke="rgb(1,193,82)" stroke-width="1" opacity="0.996078431372549" d="M 128 352 L 144 352 L 144 368 L 128 368 L 128 352 Z " /><path fill="rgb(1,193,82)" stroke="rgb(1,193,82)" stroke-width="1" opacity="0.996078431372549" d="M 400 352 L 416 352 L 416 398.5 L 417.5 399 Q 420.3 400.3 418 401.5 L 416.5 404 L 415 400 L 368 400 L 368 384 L 400 384 L 400 352 Z " /><path fill="rgb(1,193,82)" stroke="rgb(1,193,82)" stroke-width="1" opacity="0.996078431372549" d="M 432.5 353 L 433 366.5 L 432 366.5 L 432.5 353 Z " /><path fill="rgb(1,193,82)" stroke="rgb(1,193,82)" stroke-width="1" opacity="0.996078431372549" d="M 238 356 Q 241.8 354.5 241 357.5 L 241 359.5 Q 242.1 363.7 238 362 L 239 358.5 L 238 356 Z " /><path fill="rgb(1,193,82)" stroke="rgb(1,193,82)" stroke-width="1" opacity="0.996078431372549" d="M 238 364 Q 242.1 362.7 241 366 Q 236.9 367.3 238 364 Z " /><path fill="rgb(1,193,82)" stroke="rgb(1,193,82)" stroke-width="1" opacity="0.996078431372549" d="M 179.5 366 L 180 369 Q 177.3 370.1 178 367.5 L 179.5 366 Z " /><path fill="rgb(1,193,82)" stroke="rgb(1,193,82)" stroke-width="1" opacity="0.996078431372549" d="M 62 368 Q 67.3 366.2 65 373.5 Q 63.5 376.5 62 373.5 L 62 371.5 L 62 368 Z " /><path fill="rgb(1,193,82)" stroke="rgb(1,193,82)" stroke-width="1" opacity="0.996078431372549" d="M 434 368 Q 437.7 366.6 436 372.5 Q 432.4 375.4 434 383.5 L 436 386.5 Q 434.3 389.8 432.5 386 L 431 385.5 L 431 376.5 L 434 375 L 434 368 Z " /><path fill="rgb(1,193,82)" stroke="rgb(1,193,82)" stroke-width="1" opacity="0.996078431372549" d="M 62.5 381 L 65 381 L 65.5 384 L 74 384 L 74 386 L 65.5 386 L 64.5 387 L 64 384 L 62 383.5 L 62.5 381 Z " /><path fill="rgb(1,193,82)" stroke="rgb(1,193,82)" stroke-width="1" opacity="0.996078431372549" d="M 128 384 L 160 384 L 160 400 L 128 400 L 128 384 Z " /><path fill="rgb(1,193,82)" stroke="rgb(1,193,82)" stroke-width="1" opacity="0.996078431372549" d="M 240 384 L 320 384 L 320 416 L 336 416 L 336 432 L 320 432 L 320 416 L 304 416 L 304 432 L 272.5 432 Q 270.8 434.7 264.5 433 L 263.5 432 L 256 432 L 256 400 L 240 400 L 240 384 Z M 272 400 L 272 416 L 304 416 L 304 400 L 272 400 Z " /><path fill="rgb(1,193,82)" stroke="rgb(1,193,82)" stroke-width="1" opacity="0.996078431372549" d="M 78 390 L 80 390.5 L 80 398.5 Q 77.3 399.6 78 403 L 75 401.5 L 76 399 L 78 398.5 L 78 390 Z " /><path fill="rgb(1,193,82)" stroke="rgb(1,193,82)" stroke-width="1" opacity="0.996078431372549" d="M 192 390 L 208 390 L 208 400 L 192 400 L 192 390 Z " /><path fill="rgb(1,193,82)" stroke="rgb(1,193,82)" stroke-width="1" opacity="0.996078431372549" d="M 66.5 393 L 67.5 395 Q 64.7 395.7 66.5 393 Z " /><path fill="rgb(1,193,82)" stroke="rgb(1,193,82)" stroke-width="1" opacity="0.996078431372549" d="M 71.5 400 L 72 402.5 L 71 402.5 L 71.5 400 Z " /><path fill="rgb(1,193,82)" stroke="rgb(1,193,82)" stroke-width="1" opacity="0.996078431372549" d="M 78.5 405 Q 82.7 403.7 81 408.5 L 79.5 408 L 75.5 409 L 76 407.5 Q 75.3 405.3 77.5 406 L 78.5 405 Z " /><path fill="rgb(1,193,82)" stroke="rgb(1,193,82)" stroke-width="1" opacity="0.996078431372549" d="M 92.5 415 Q 94.8 414.3 94 416.5 Q 92.5 419.5 91 416.5 L 92.5 415 Z " /><path fill="rgb(1,193,82)" stroke="rgb(1,193,82)" stroke-width="1" opacity="0.996078431372549" d="M 208 416 L 224 416 L 224 432 L 208 432 L 208 416 Z " /><path fill="rgb(1,193,82)" stroke="rgb(1,193,82)" stroke-width="1" opacity="0.996078431372549" d="M 396 416 Q 400.1 414.7 399 418 Q 394.9 419.3 396 416 Z " /><path fill="rgb(1,193,82)" stroke="rgb(1,193,82)" stroke-width="1" opacity="0.996078431372549" d="M 110.5 417 L 113 418.5 L 112.5 420 L 107 420 Q 105.8 417 109.5 418 L 110.5 417 Z " /><path fill="rgb(1,193,82)" stroke="rgb(1,193,82)" stroke-width="1" opacity="0.996078431372549" d="M 394.5 424 L 395.5 426 L 393 425.5 L 394.5 424 Z " /><path fill="rgb(1,193,82)" stroke="rgb(1,193,82)" stroke-width="1" opacity="0.996078431372549" d="M 352 426 L 368 426 L 368 432 L 352 432 L 352 426 Z " /><path fill="rgb(1,193,82)" stroke="rgb(1,193,82)" stroke-width="1" opacity="0.996078431372549" d="M 121.5 431 Q 126.3 429.7 125 433 L 120 432.5 L 121.5 431 Z " /><path fill="rgb(1,193,82)" stroke="rgb(1,193,82)" stroke-width="1" opacity="0.996078431372549" d="M 232.5 432 L 240 432.5 L 232.5 433 L 232.5 432 Z " /><path fill="rgb(0,194,82)" stroke="rgb(0,194,82)" stroke-width="1" opacity="1" d="M 116.5 58 L 117.5 59 L 274 59.5 L 160 60.5 L 271.5 61 L 272.5 62 L 287.5 62 L 288.5 61 L 336 60.5 L 287 59.5 L 379.5 59 Q 381.5 63 383.5 59 L 388 59.5 L 387.5 61 L 393.5 61 Q 394.9 64.3 400 63 Q 398.7 66.3 403.5 65 L 400.5 69 L 399 68.5 Q 398.2 71.1 401.5 70 L 407.5 67 L 415 71.5 L 411 72 L 412.5 76 L 415.5 77 Q 418.3 75.8 416 74.5 Q 415.3 72.3 417.5 73 L 417.5 75 L 423 78.5 Q 422.3 81.1 425 80 L 425 82.5 L 429 88 L 431 88 L 431 91 Q 433.7 89.9 433 92.5 L 436 97.5 L 435 100 Q 437.7 98.9 437 101.5 L 437.5 104 Q 440.9 103.1 439 108.5 Q 434.5 111 436 119.5 L 438 118.5 L 440.5 110 L 442 123.5 L 442 125.5 L 443 127.5 L 443 368 L 441 368.5 L 441 379.5 L 440 379.5 L 439 372.5 L 440 369.5 L 439 368.5 L 439 352.5 L 440 351.5 L 441 320.5 L 440 319.5 L 440 240.5 L 439 239.5 L 439 224.5 L 440 223.5 L 440 192.5 L 439 191.5 L 439 160.5 L 440 159.5 L 440 128 L 438 128.5 L 438 159.5 L 437 160.5 L 437 190.5 L 438 191.5 L 438 208.5 L 437 209.5 L 437 239.5 L 438 240.5 L 438 256 L 436 256.5 L 436 272.5 L 437 273.5 L 437 287.5 L 438 288.5 L 438 303.5 L 437 304.5 L 437 319.5 L 438 320.5 L 438 351.5 L 437 352.5 L 437 366.5 L 438 367.5 L 438 378.5 L 437 382.5 Q 439.8 383.3 439 387.5 Q 436 388.5 437 393.5 L 433 397.5 L 432.5 401 L 429 399 L 431 404.5 L 429.5 404 Q 427.3 403.3 428 405.5 L 428.5 407 Q 426.3 406.3 427 408.5 L 425 412 Q 421.6 412.8 420.5 410 L 420 414 L 422 414.5 L 420.5 415 L 418 414 L 419 417.5 L 413.5 421 L 412 420.5 Q 413.3 424.3 409.5 423 L 409.5 425 Q 406.9 424.3 408 427 L 404.5 427 L 399.5 430 L 398 429.5 L 399.5 427 L 397.5 426 L 396.5 429 L 394.5 429 L 393 428.5 L 395 427.5 L 392 427 L 392 422 L 386.5 422 Q 387.1 419.2 384 420 L 384 426 L 388 426 Q 387 429 390 428 L 390 431.5 L 390.5 433 L 385.5 434 L 383 433 Q 384.1 435.7 381.5 435 L 377.5 435 L 360.5 434 L 352.5 434 Q 347.8 435.2 346.5 433 L 344 433.5 L 343.5 435 L 336.5 434 L 334.5 433 L 328 433.5 L 327.5 435 L 309.5 435 L 305.5 435 L 302.5 434 L 287.5 435 L 199.5 435 L 198.5 434 L 191.5 435 L 118.5 435 L 118 433 L 116.5 433 L 114.5 433 L 109 432.5 L 114 431.5 Q 111.9 427.9 107 428 Q 105.8 425 109.5 426 L 113 425 Q 114.3 422 110.5 423 L 105.5 422 L 100.5 418 L 96.5 419 L 95 418.5 L 96.5 421 L 103.5 422 L 106 424.5 L 105 428.5 L 108 430.5 L 103.5 431 L 98.5 428 L 97 428.5 L 95.5 426 L 93.5 426 L 90 424.5 L 94 423 Q 95.8 418.5 90.5 420 L 88.5 419 L 90 421.5 Q 90.8 424.1 87.5 423 L 85 422 L 82.5 418 Q 79.5 418.9 81 414.5 L 78.5 414 L 76 412.5 Q 76.8 410.3 74.5 411 Q 69.8 408.8 74 406.5 L 73.5 404 L 71.5 407 L 67 400.5 L 69 399.5 L 66.5 396 Q 64.3 396.8 65 394.5 L 61 388.5 L 63 388.5 L 59 381.5 L 60 379 L 58 378.5 L 59 377.5 L 59 128.5 L 60 123.5 L 59 122.5 L 59 112 Q 62.5 113.1 61 105.5 Q 64 104.3 63 100 Q 66 101.3 65 97.5 L 71.5 87 L 72 92 Q 74.7 93.1 74 90.5 L 75 88 Q 72.3 89.1 73 86.5 Q 70.8 85.2 73.5 84 L 75.5 85 L 76 82.5 L 75.5 81 Q 77.8 81.8 77 79.5 L 84 75.5 L 84 73 Q 86.7 74.1 86 71.5 Q 88.8 73.4 91.5 68 L 97.5 65 L 101 65 L 101 63 L 105 63 L 105 61.5 L 106 61.5 Q 105.2 64.1 108.5 63 L 108.5 62 L 107 61.5 L 109.5 61 L 111.5 61 Q 114.1 61.7 113 59 L 115.5 59 L 116.5 58 Z M 132 60 L 132 61 L 155 61 L 132 60 Z M 340 60 L 340 61 L 368 61 L 340 60 Z M 372 61 L 372 62 L 374 62 L 372 61 Z M 123 63 L 123 64 L 126 64 L 123 63 Z M 392 64 L 392 65 L 395 65 L 392 64 Z M 89 72 L 89 73 L 91 73 L 89 72 Z M 96 73 L 93 74 Q 92 77 96 76 L 96 73 Z M 399 74 L 399 78 L 405 77 L 408 78 L 410 81 Q 413 82 414 80 L 405 74 L 399 74 Z M 91 77 Q 86 79 90 81 Q 95 83 94 79 L 91 77 Z M 417 79 Q 415 82 418 81 L 417 79 Z M 421 80 Q 417 83 418 89 Q 421 90 420 88 Q 421 85 425 86 L 421 80 Z M 78 81 Q 77 84 80 83 L 81 84 Q 82 79 78 81 Z M 78 89 L 78 94 L 81 94 L 81 89 L 78 89 Z M 421 91 L 420 94 Q 417 93 418 97 Q 423 99 421 94 L 424 94 Q 426 90 421 91 Z M 72 93 L 70 96 L 73 96 L 72 93 Z M 429 93 L 426 94 Q 424 99 430 97 L 430 93 L 429 93 Z M 434 95 L 431 98 Q 433 101 434 98 L 434 95 Z M 433 103 L 431 105 Q 429 109 433 108 L 435 110 L 433 103 Z M 433 112 L 432 116 L 433 116 L 433 112 Z M 435 119 L 433 121 L 433 129 L 434 130 L 434 160 L 436 159 L 436 144 L 435 143 L 435 130 L 436 129 L 436 121 L 435 119 Z M 63 125 L 62 128 L 63 128 L 63 125 Z M 320 127 L 321 130 L 323 129 L 320 127 Z M 324 127 L 326 130 L 329 129 L 329 127 L 324 127 Z M 180 128 L 178 130 Q 177 133 180 132 L 180 128 Z M 184 128 L 184 133 L 175 134 L 175 365 L 176 365 L 183 365 L 184 369 Q 188 370 186 365 Q 192 363 190 369 L 193 368 L 192 366 L 194 365 L 198 365 L 199 367 L 199 365 L 206 365 L 207 366 L 209 365 L 211 366 L 226 365 L 227 368 L 228 369 L 236 369 L 237 364 Q 233 362 234 366 L 232 368 L 230 368 Q 227 369 228 366 L 228 364 L 230 364 L 232 363 L 231 360 L 231 358 L 236 358 Q 237 355 234 356 L 234 352 Q 231 351 232 355 L 231 355 L 232 352 L 232 339 L 231 338 L 232 336 L 232 321 L 231 320 L 231 286 L 232 281 L 239 282 L 304 282 L 305 283 Q 306 279 313 281 L 314 289 L 317 288 L 316 286 Q 315 280 318 278 L 317 272 L 320 271 L 321 273 L 322 272 L 336 272 L 336 256 L 322 256 L 320 255 L 320 241 L 319 256 L 318 242 L 317 241 Q 316 236 321 238 Q 323 234 318 235 L 316 235 Q 313 234 315 233 L 314 230 L 317 229 L 309 224 L 308 229 L 311 230 Q 313 229 312 232 L 308 231 L 304 232 L 288 232 L 287 231 L 258 231 L 257 232 L 241 232 L 240 231 L 235 232 L 233 232 Q 229 233 231 229 L 238 230 L 239 224 L 237 217 L 237 209 L 236 209 L 236 218 Q 233 217 234 225 L 230 226 L 231 224 L 231 193 L 230 192 L 234 189 L 237 190 L 238 194 L 238 208 L 241 207 L 241 194 L 240 192 L 242 190 L 320 190 L 319 188 L 238 188 L 233 186 Q 229 187 230 184 L 236 184 L 236 186 Q 239 187 238 184 L 319 184 Q 320 188 326 187 L 326 185 Q 325 182 328 183 L 330 185 Q 331 181 333 184 L 335 183 L 333 182 L 333 143 Q 330 141 332 135 L 326 132 L 322 133 L 187 133 L 186 132 L 186 130 Q 187 127 184 128 Z M 192 128 L 190 131 Q 189 133 193 132 L 192 128 Z M 241 130 L 241 131 L 245 131 L 241 130 Z M 209 131 L 209 132 L 216 132 L 209 131 Z M 273 131 L 273 132 L 280 132 L 273 131 Z M 305 131 L 305 132 L 312 132 L 305 131 Z M 336 138 L 334 143 L 335 144 L 337 143 Q 338 139 336 138 Z M 64 144 L 63 148 L 64 148 L 64 144 Z M 63 148 L 62 160 L 63 161 L 63 192 L 62 193 Q 60 199 63 201 L 62 208 L 64 207 L 64 153 L 63 148 Z M 433 160 L 432 191 L 433 191 L 433 160 Z M 329 186 L 326 190 Q 325 194 328 193 L 330 189 Q 333 190 332 188 L 329 186 Z M 334 189 Q 333 192 336 191 Q 337 188 334 189 Z M 320 190 Q 319 195 323 193 Q 325 189 320 190 Z M 232 193 L 232 208 L 234 208 L 234 194 L 232 193 Z M 435 193 L 434 207 L 435 207 L 435 193 Z M 433 209 L 432 240 L 433 240 L 433 209 Z M 319 223 L 316 224 Q 315 228 320 226 L 319 223 Z M 64 224 L 63 240 L 62 241 L 62 255 L 63 256 L 63 296 L 62 297 L 62 304 L 64 304 L 64 256 L 65 255 L 64 224 Z M 241 226 L 241 229 L 289 229 L 289 227 L 287 226 L 241 226 Z M 318 228 L 321 233 L 321 230 L 318 228 Z M 435 240 L 434 256 L 435 256 L 435 240 Z M 400 256 L 400 272 L 416 272 L 416 256 L 400 256 Z M 433 256 L 432 287 L 433 287 L 433 256 Z M 319 280 L 319 283 L 321 282 Q 322 279 319 280 Z M 310 284 L 308 287 L 305 285 L 240 285 L 238 287 L 234 286 L 234 335 L 236 337 L 236 351 L 238 353 Q 237 356 241 354 L 240 352 L 240 338 L 237 335 L 238 288 L 303 288 L 304 289 L 307 288 L 309 289 L 311 288 L 310 284 Z M 320 286 L 318 288 L 320 288 L 320 286 Z M 435 289 L 434 303 L 435 303 L 435 289 Z M 433 305 L 432 320 L 433 320 L 433 305 Z M 266 320 L 266 336 L 272 336 L 272 320 L 266 320 Z M 304 320 L 304 336 L 320 336 L 320 320 L 304 320 Z M 435 320 L 434 351 L 435 351 L 435 320 Z M 63 344 L 62 352 L 64 352 L 63 344 Z M 128 352 L 128 368 L 144 368 L 144 352 L 128 352 Z M 400 352 L 400 384 L 368 384 L 368 400 L 415 400 L 417 404 L 418 402 Q 420 400 418 399 L 416 399 L 416 352 L 400 352 Z M 433 353 L 432 367 L 433 367 L 433 353 Z M 238 356 L 239 359 L 238 362 Q 242 364 241 360 L 241 358 Q 242 354 238 356 Z M 238 364 Q 237 367 241 366 Q 242 363 238 364 Z M 180 366 L 178 368 Q 177 370 180 369 L 180 366 Z M 62 368 L 62 372 L 62 374 Q 64 377 65 374 Q 67 366 62 368 Z M 434 368 L 435 375 L 436 373 Q 438 367 434 368 Z M 433 375 L 431 377 L 431 386 L 433 386 L 434 384 L 434 376 L 433 375 Z M 63 381 L 62 384 L 64 384 L 65 387 L 66 386 L 74 386 L 74 384 L 66 384 L 65 381 L 63 381 Z M 128 384 L 128 400 L 160 400 L 160 384 L 128 384 Z M 240 384 L 240 400 L 256 400 L 256 432 L 264 432 L 265 433 Q 271 435 273 432 L 304 432 L 304 416 L 272 416 L 272 400 L 304 400 L 304 416 L 320 416 L 320 384 L 240 384 Z M 435 384 L 433 387 Q 435 390 436 387 L 435 384 Z M 78 390 L 78 399 L 76 399 L 75 402 L 78 403 Q 77 400 80 399 L 80 391 L 78 390 Z M 192 390 L 192 400 L 208 400 L 208 390 L 192 390 Z M 432 391 L 432 397 L 434 396 L 433 395 L 433 394 L 432 391 Z M 67 393 Q 65 396 68 395 L 67 393 Z M 425 399 L 422 402 Q 419 401 420 404 L 418 404 L 418 407 L 415 409 Q 414 412 417 413 L 419 406 L 424 407 L 426 406 Q 427 403 424 404 L 424 402 L 426 402 L 425 399 Z M 72 400 L 71 403 L 72 403 L 72 400 Z M 426 402 Q 425 405 428 404 Q 429 401 426 402 Z M 79 405 L 76 406 Q 75 409 80 408 L 81 409 Q 83 404 79 405 Z M 83 415 L 84 418 L 87 417 Q 88 413 83 415 Z M 93 415 L 91 417 Q 93 420 94 417 Q 95 414 93 415 Z M 407 415 L 405 418 Q 401 417 400 420 Q 399 423 402 422 L 402 424 Q 404 425 403 422 L 406 422 Q 404 417 408 418 Q 409 414 407 415 Z M 208 416 L 208 432 L 224 432 L 224 416 L 208 416 Z M 320 416 L 320 432 L 336 432 L 336 416 L 320 416 Z M 396 416 Q 395 419 399 418 Q 400 415 396 416 Z M 111 417 L 110 418 Q 106 417 107 420 L 113 420 L 113 419 L 111 417 Z M 401 424 L 401 427 Q 404 426 401 424 Z M 352 426 L 352 432 L 368 432 L 368 426 L 352 426 Z M 122 431 L 120 433 L 125 433 Q 126 430 122 431 Z M 233 432 L 233 433 L 240 433 L 233 432 Z " /><path fill="rgb(0,194,82)" stroke="rgb(0,194,82)" stroke-width="1" opacity="1" d="M 176 135 L 178 135.5 L 177 136.5 L 176.5 280 L 176 135 Z " /><path fill="rgb(0,194,82)" stroke="rgb(0,194,82)" stroke-width="1" opacity="1" d="M 330.5 139 L 331 145.5 L 330 145.5 L 330.5 139 Z " /><path fill="rgb(0,194,82)" stroke="rgb(0,194,82)" stroke-width="1" opacity="1" d="M 330.5 176 L 331 181.5 L 330 181.5 L 330.5 176 Z " /><path fill="rgb(0,194,82)" stroke="rgb(0,194,82)" stroke-width="1" opacity="1" d="M 228.5 200 L 229 233.5 L 228 233.5 L 228.5 200 Z " /><path fill="rgb(0,194,82)" stroke="rgb(0,194,82)" stroke-width="1" opacity="1" d="M 228.5 283 L 229 353.5 L 228 353.5 L 228.5 283 Z " /><path fill="rgb(0,194,82)" stroke="rgb(0,194,82)" stroke-width="1" opacity="1" d="M 176.5 288 L 177 291.5 L 176 291.5 L 176.5 288 Z " /><path fill="rgb(0,194,82)" stroke="rgb(0,194,82)" stroke-width="1" opacity="1" d="M 392.5 430 L 395 430.5 L 392.5 431 L 392.5 430 Z " /><path fill="rgb(228,247,235)" stroke="rgb(228,247,235)" stroke-width="1" opacity="1" d="M 178.5 135 L 328.5 135 L 330 136.5 L 330 145.5 L 331 146.5 L 331 175.5 L 329.5 178 L 329 138.5 L 327.5 137 L 179 137 L 179 360 L 181 360.5 Q 178.8 361.8 181.5 363 L 208.5 363 L 209.5 362 L 224.5 362 L 227 361 L 227 282.5 L 226 280.5 L 229.5 276 L 233 277.5 L 230 278.5 L 313 279 L 312.5 277 L 311 277.5 L 314 271.5 L 313 267.5 L 314 264.5 L 313 263.5 L 313 239.5 L 314 237.5 L 312.5 235 L 308.5 236 L 306.5 235 L 303.5 236 L 287.5 236 L 283.5 235 L 254.5 235 L 247.5 236 L 244.5 235 L 241.5 236 L 235.5 235 Q 234.3 237.2 229.5 236 L 226 233.5 L 227 232.5 L 227 186.5 L 226 183.5 L 228.5 180 L 237.5 181 L 241.5 180 L 259.5 180 L 295.5 180 L 296.5 181 L 303.5 180 L 323.5 180 L 324.5 181 L 330 179 L 329.5 182 L 228 182 L 228 234 L 315 234 L 315 280 L 228 280 L 228 353.5 L 229 354.5 L 229 362.5 L 227.5 364 L 177 364 L 177 136.5 L 178.5 135 Z " /><path fill="rgb(245,245,247)" stroke="rgb(245,245,247)" stroke-width="1" opacity="1" d="M 179 137 L 327.5 137 L 329 138.5 L 329 177.5 L 330 178.5 L 324.5 181 L 323.5 180 L 303.5 180 L 295.5 180 L 259.5 180 L 258.5 181 L 241.5 180 L 236.5 181 Q 234.8 178.3 228.5 180 L 226 185.5 L 227 186.5 L 227 232.5 L 226.5 234 Q 228.5 237 234.5 236 L 238.5 235 L 241.5 236 L 245.5 236 L 248.5 235 L 254.5 235 L 283.5 235 L 287.5 236 L 303.5 236 L 307.5 235 L 311.5 236 L 313 235.5 L 314 238.5 L 313 239.5 L 313 263.5 L 314 266.5 L 313 270.5 L 313 272.5 L 312 276.5 L 313 279 L 230 278.5 L 231.5 276 L 228 277.5 L 226 281.5 L 227 282.5 L 227 361 L 224.5 362 L 209.5 362 L 208.5 363 L 181.5 363 L 180.5 360 L 179 359.5 L 179 137 Z " /></svg>